#define arrow_right_width 15
#define arrow_right_height 15
static unsigned char arrow_right_bits[] = {
   0x00, 0x00, 0xc0, 0x00, 0xe0, 0x01, 0x60, 0x03, 0x40, 0x06, 0xc0, 0x0c,
   0xfe, 0x18, 0x02, 0x30, 0xfe, 0x18, 0xc0, 0x0c, 0x40, 0x06, 0x60, 0x03,
   0xe0, 0x01, 0xc0, 0x00, 0x00, 0x00 };
