#define arrow_upp_width 15
#define arrow_upp_height 15
static unsigned char arrow_upp_bits[] = {
   0x00, 0x00, 0x80, 0x00, 0xc0, 0x01, 0x60, 0x03, 0x30, 0x06, 0x18, 0x0c,
   0x0c, 0x18, 0x66, 0x33, 0x7e, 0x3f, 0x4c, 0x19, 0x40, 0x01, 0x40, 0x01,
   0x40, 0x01, 0xc0, 0x01, 0x00, 0x00 };
