#define arrow_left_width 15
#define arrow_left_height 15
static unsigned char arrow_left_bits[] = {
   0x00, 0x00, 0x80, 0x01, 0xc0, 0x03, 0x60, 0x03, 0x30, 0x01, 0x98, 0x01,
   0x8c, 0x3f, 0x06, 0x20, 0x8c, 0x3f, 0x98, 0x01, 0x30, 0x01, 0x60, 0x03,
   0xc0, 0x03, 0x80, 0x01, 0x00, 0x00 };
